name processed_emg_signals
nRows=41
nColumns=7
 
endheader
time	RGLTMED	RRF	RADDLONG	RST	RTA	RGM
0.485	0.5633131666728297	0.2474959066764873	0.206451468195067	0.9073527625920764	0.07843802933276	0.0764153866282692
0.486	0.5576454004520877	0.2461815956279668	0.2051958043059929	0.9030813144373082	0.076196187019483	0.0774614184897009
0.487	0.5520772009683268	0.2449006135522091	0.2039532230349035	0.8987599568391285	0.0740234408438462	0.0785202011347413
0.488	0.5466100308385511	0.2436516106913985	0.2027243977517868	0.8943927854843757	0.0719195644501528	0.0795918346201507
0.489	0.5412451876631789	0.2424332952950701	0.2015100034450348	0.8899839074717409	0.0698842850657051	0.0806764317743223
0.49	0.5359838043120388	0.2412444345926871	0.2003107161284414	0.885537432864341	0.0679172843828394	0.0817741185858625
0.491	0.5308268494638427	0.2400838556179556	0.1991272122303461	0.8810574662251366	0.0660181995060409	0.0828850345904696
0.492	0.5257751283978287	0.238950445882754	0.1979601679646317	0.8765480981480334	0.0641866239620286	0.0840093332552928
0.493	0.5208292840363177	0.2378431538988792	0.1968102586827294	0.8720133967980155	0.0624221087705779	0.0851471823597269
0.494	0.5159897982364795	0.2367609895467559	0.1956781582058733	0.8674573994737997	0.0607241635737785	0.0862987643713462
0.495	0.5112569933286407	0.2357030242909554	0.1945645381374445	0.8628841042057402	0.0590922578213766	0.0874642768154889
0.496	0.5066310338974704	0.234668391243174	0.1934700671553153	0.8582974614005846	0.0575258220098179	0.0886439326367415
0.497	0.5021119288013335	0.2336562850740508	0.1923954102853191	0.8537013655442487	0.0560242489725124	0.0898379605503846
0.498	0.4976995334238052	0.2326659617754833	0.1913412281574631	0.8490996469749181	0.0545868952188414	0.0910466053816189
0.499	0.4933935521499905	0.231696738275596	0.1903081762467376	0.8444960637410435	0.0532130823193182	0.092270128390157
0.5	0.4891935410589679	0.2307479919095696	0.189296904100593	0.8398942935623142	0.0519020983342028	0.0935088075775852
0.501	0.4850989108225436	0.2298191597508424	0.1883080545543531	0.8352979259148444	0.0506531992827596	0.0947629379746928
0.502	0.4811089297996673	0.2289097378077358	0.1873422629358197	0.8307104542654159	0.049465610650196	0.0960328319058027
0.503	0.4772227273152701	0.2280192800920941	0.1864001562596371	0.8261352684828448	0.048338528929228	0.097318819226914
0.504	0.4734392971121803	0.2271473975662122	0.1854823524117375	0.8215756474573925	0.0472711231931139	0.0986212475344706
0.505	0.4697575009650071	0.2262937569748139	0.184589459323882	0.8170347519611495	0.0462625366969562	0.0999404823415505
0.506	0.4661760724455972	0.2254580795681388	0.183722074138355	0.8125156177826758	0.0453118885039618	0.1012769072185317
0.507	0.4626936208305636	0.2246401397225234	0.1828807823623902	0.8080211491684614	0.0444182751333436	0.1026309238954712
0.508	0.4593086351420082	0.2238397634637653	0.1820661570125308	0.803554112601992	0.0435807722264107	0.1040029523237534
0.509	0.4560194883132503	0.2230568268988004	0.1812787577486481	0.7991171309491346	0.0427984362274428	0.1053934306948018
0.51	0.4528244414714763	0.2222912545605936	0.180519129997691	0.7947126779959227	0.0420703060758481	0.1068028154138176
0.511	0.4497216483291969	0.2215430176708775	0.1797878040674716	0.790343073402405	0.0413954049061867	0.1082315810267363
0.512	0.446709159675868	0.2208121323252017	0.1790852942515253	0.7860104780933437	0.0407727417525995	0.1096802200987547
0.513	0.4437849279606027	0.2200986576043556	0.1784120979267489	0.7817168901040582	0.0402013132541994	0.1111492430430944
0.514	0.4409468119566767	0.2194026936165815	0.1777686946462403	0.777464140896962	0.0396801053579284	0.1126391778988936
0.515	0.4381925814985548	0.2187243794752746	0.1771555452299939	0.7732538921615966	0.0392080950153271	0.1141505700575582
0.516	0.4355199222823182	0.2180638912171766	0.1765730908563107	0.7690876331082825	0.0387842518696853	0.1156839819372264
0.517	0.4329264407204488	0.2174214396667676	0.1760217521564025	0.7649666782626982	0.0384075399301451	0.117239992605458
0.518	0.4304096688422434	0.2167972682525282	0.1755019283146129	0.760892165766359	0.0380769192294135	0.1188191973506017
0.519	0.4279670692318601	0.2161916507812895	0.1750139961764708	0.7568650561852281	0.0377913474619571	0.1204222072026015
0.52	0.4255960399968796	0.2156048891760474	0.174558309366882	0.7528861318266098	0.0375497815996364	0.1220496484043252
0.521	0.4232939197613676	0.215037311182947	0.1741351974201656	0.748955996561685	0.0373511794818997	0.1237021618345947
0.522	0.4210579926779472	0.214489268052521	0.1737449649240496	0.7450750761490371	0.0371945013777547	0.1253804023842301
0.523	0.4188854934536608	0.2139611322000015	0.1733878906784292	0.7412436190518545	0.0370787115167962	0.1270850382864025
0.524	0.4167736123842097	0.2134532948496983	0.1730642268701989	0.7374616977397841	0.0370027795866362	0.1288167504024213
0.525	0.4147195003909263	0.21296616366848	0.1727741982642915	0.7337292104641783	0.0369656821941746	0.1305762314640774
